<svg width="180" height="180" viewBox="0 0 180 180" fill="none" xmlns="http://www.w3.org/2000/svg">
<g clip-path="url(#clip0_71_168)">
<path d="M6.96998 124.691C11.8715 84.6055 32.3025 71.7481 50.5967 60.3555C69.2772 48.7174 85.4345 38.524 83.4908 0.225342C74.9697 0.834323 66.5797 2.66111 58.5768 5.65001C59.3897 36.0451 44.991 45.0593 31.0188 53.7638C16.2619 62.9551 2.32199 71.6394 1.44873 105.91C2.61576 112.433 4.47093 118.731 6.96998 124.691Z" fill="url(#paint0_linear_71_168)"/>
<path d="M26.7612 46.9306C39.7836 38.8137 50.3151 32.1738 50.5525 9.10684C26.8498 20.7248 8.98216 42.4597 2.58765 68.6494C9.15117 57.9087 18.2741 52.2144 26.7612 46.9306ZM29.1395 156.233C32.3106 113.512 51.0555 98.6018 69.233 84.1669C88.9799 68.4885 107.64 53.631 106.59 1.50909C101.619 0.584575 96.5789 0.0797663 91.5232 0C93.6078 42.9024 73.9494 55.289 54.8504 67.1846C35.5019 79.2372 15.5336 91.7485 13.9964 138.096C18.2308 144.776 23.3218 150.874 29.1395 156.233ZM125.524 109.262C143.561 94.7868 160.575 81.0078 159.666 32.9746C154.803 27.056 149.211 21.7771 143.021 17.264C142.768 69.74 122.369 86.1428 102.598 102.006C83.9899 116.94 66.4241 131.069 65.1363 176.515C72.557 178.648 80.36 179.859 88.4246 180.004C90.5453 137.456 108.296 123.093 125.524 109.262ZM155.754 128.035C142.836 135.906 131.633 142.808 130.329 170.487C155.098 158.04 173.356 134.506 178.555 106.421C172.752 117.665 163.951 123.041 155.754 128.035Z" fill="url(#paint1_linear_71_168)"/>
<path d="M151.569 121.166C165.404 112.731 178.479 104.771 176.885 67.7601L177.3 67.744C175.192 59.5019 171.918 51.603 167.577 44.2868C165.674 87.2253 147.879 101.648 130.57 115.54C114.099 128.747 98.5615 141.331 96.5051 179.779C105.285 179.158 113.925 177.246 122.148 174.105C122.639 138.796 138.003 129.432 151.569 121.166ZM97.5675 95.7285C117.347 79.861 136.035 64.8305 134.941 12.0003C128.568 8.31693 121.765 5.43264 114.687 3.4126C115.262 57.9007 94.4166 74.4484 74.239 90.4689C55.8644 105.057 38.524 118.916 36.87 162.591C43.1416 167.198 49.9851 170.971 57.2286 173.815C59.2166 126.631 78.6858 110.88 97.5675 95.7285Z" fill="url(#paint2_linear_71_168)"/>
</g>
<path d="M119.683 105.316C117.223 107.777 113.234 107.777 110.774 105.316L99.9122 94.4544C97.4516 91.9942 97.4516 88.0054 99.9122 85.5451L110.774 74.6832C113.234 72.2229 117.223 72.2229 119.683 74.6832L130.546 85.545C133.006 88.0054 133.006 91.9942 130.546 94.4544L119.683 105.316ZM69.2262 105.316C66.7659 107.777 62.777 107.777 60.3167 105.316L49.4548 94.4544C46.9945 91.9942 46.9945 88.0054 49.4548 85.5451L60.3167 74.6832C62.777 72.2229 66.7659 72.2229 69.2262 74.6832L80.088 85.545C82.5483 88.0054 82.5483 91.9942 80.088 94.4544L69.2262 105.316ZM94.4551 130.545C91.9945 133.005 88.0056 133.005 85.5453 130.545L74.6835 119.683C72.2232 117.223 72.2232 113.234 74.6835 110.774L85.5453 99.912C88.0056 97.4514 91.9945 97.4514 94.4551 99.912L105.317 110.774C107.777 113.234 107.777 117.223 105.317 119.683L94.4551 130.545ZM94.4551 80.0878C91.9945 82.5481 88.0056 82.5481 85.5453 80.0878L74.6835 69.226C72.2232 66.7657 72.2232 62.7767 74.6835 60.3164L85.5453 49.4546C88.0056 46.9943 91.9945 46.9943 94.4551 49.4546L105.317 60.3164C107.777 62.7767 107.777 66.7657 105.317 69.226L94.4551 80.0878Z" fill="#6BF481"/>
<defs>
<linearGradient id="paint0_linear_71_168" x1="42.5493" y1="0.225342" x2="42.5493" y2="124.691" gradientUnits="userSpaceOnUse">
<stop stop-color="#0F91F1"/>
<stop offset="0.645" stop-color="#DCC05E"/>
<stop offset="1" stop-color="#FAC748"/>
</linearGradient>
<linearGradient id="paint1_linear_71_168" x1="90.5715" y1="0" x2="90.5715" y2="180.004" gradientUnits="userSpaceOnUse">
<stop stop-color="#0F91F1"/>
<stop offset="0.645" stop-color="#DCC05E"/>
<stop offset="1" stop-color="#FAC748"/>
</linearGradient>
<linearGradient id="paint2_linear_71_168" x1="107.085" y1="3.4126" x2="107.085" y2="179.779" gradientUnits="userSpaceOnUse">
<stop stop-color="#0F91F1"/>
<stop offset="0.645" stop-color="#DCC05E"/>
<stop offset="1" stop-color="#FAC748"/>
</linearGradient>
<clipPath id="clip0_71_168">
<rect width="180" height="180" fill="white"/>
</clipPath>
</defs>
</svg>
